<?xml version="1.0" encoding="utf-8"?>
<!-- Generator: Adobe Illustrator 17.1.0, SVG Export Plug-In . SVG Version: 6.00 Build 0)  -->
<!DOCTYPE svg PUBLIC "-//W3C//DTD SVG 1.1//EN" "http://www.w3.org/Graphics/SVG/1.1/DTD/svg11.dtd">
<svg version="1.1" xmlns="http://www.w3.org/2000/svg" xmlns:xlink="http://www.w3.org/1999/xlink" x="0px" y="0px"
	 viewBox="0 0 300 300" enable-background="new 0 0 300 300" xml:space="preserve">
<g id="Layer_2" display="none">
	<rect x="-110" y="-222" display="inline" fill="#4DB6AC" width="666" height="835.3"/>
</g>
<g id="Layer_1">
	<g>
		<g opacity="0.85">
			<path fill="#FFFFFF" d="M150.7,257.2c-54.5-0.2-96.4-44.7-96.4-96.3c0-51.5,41.5-96.3,96.2-96.4c52.9-0.1,96.5,42.5,96.4,96.5
				C246.8,214.8,203.3,256.9,150.7,257.2z M209.6,184.1c-0.3-3.8-0.4-6.5-0.6-9.2c-0.8-9.5-2.6-18.8-5.3-27.9
				c-0.5-1.7-1.2-1.7-2.6-0.9c-3,1.7-6,3.4-9.1,4.9c-7.6,3.7-15.6,6.5-23.9,8.4c-2,0.5-2.6,1.2-2.2,3.2c0.5,2.4,0.7,4.9,1,7.3
				c1.2,9.2,2.5,18.3,3.6,27.5c0.2,1.9,1,2.4,2.8,2.1c10.9-2.1,21.5-5.3,31.7-9.8C209,187.8,209.8,187.6,209.6,184.1z M121.4,177
				c0,7.1,0.1,14.2,0.8,21.3c0.3,2.7,1.3,3.4,3.7,3.4c4.6,0.2,9.3,0.7,13.9,0.8c7.2,0.1,14.4-0.3,21.5-1.1c1.7-0.2,2.1-0.9,1.9-2.5
				c-1.6-11.6-3.2-23.3-4.7-34.9c-0.2-1.7-0.7-2.3-2.6-2c-6.6,1-13.3,1.7-20,1.7c-4,0-8,0.1-12-0.5c-1.6-0.2-2.6,0.1-2.5,2.1
				C121.5,169.1,121.4,173.1,121.4,177z M150.5,243c5-0.1,9.9-0.6,14.8-1.3c2.2-0.3,2.6-1.4,2.3-3.2c-0.3-2.9-0.6-5.9-0.9-8.8
				c-0.7-6.2-1.3-12.4-2-18.6c-0.1-1.3-0.4-2.3-2.3-2.1c-12,1.4-24.1,1.7-36.1,0.3c-1.9-0.2-2.3,0.4-2,2.2
				c1.8,9.5,4.5,18.8,7.9,27.9c0.5,1.4,1.6,1.9,2.9,2.1C140.1,242.3,145.3,242.9,150.5,243z M165,152.4c0.9-0.1,1.2-0.2,1.4-0.2
				c11.5-2.9,22.5-7.2,32.6-13.5c1.5-0.9,1.1-1.9,0.6-3c-4.1-10-9.4-19.4-15.9-28.1c-1.1-1.5-1.9-1.4-3.3-0.5
				c-4.9,3.3-10.3,5.7-16,7.6c-1.7,0.6-4.5,1.2-4.8,1.9c-0.8,1.6-0.2,3.1,0.2,5.5c1.4,9.5,2.9,19.1,4.4,28.6
				C164.3,151.4,164.3,152.5,165,152.4z M133.3,156.1c7.8-0.1,14.5-0.7,21.1-1.5c1.8-0.2,2.7-0.7,2.3-3c-1.8-10.5-3.3-20.9-4.9-31.4
				c-0.3-1.8-1-2.3-2.7-2.1c-5.9,0.7-11.8,1.2-17.7,0.5c-1.4-0.2-2.2,0.4-2.5,1.9c-1,4-2.1,8-3,12.1c-1.6,6.8-2.6,13.6-3.5,20.5
				c-0.3,1.9,0.3,2.7,2.4,2.7C128,155.6,131.2,156.3,133.3,156.1z M172.2,210.1c1,9.1,2,17.8,2.8,26.5c0.2,2,0.7,2.4,2.6,1.7
				c9.6-3.4,18.3-8.4,26.1-14.9c0.8-0.7,1.5-1.4,1.7-2.5c1.7-7.2,2.9-14.6,3.5-22c0.2-1.9-0.3-2.5-2.3-1.6c-10.2,4.6-21,7.7-32,9.7
				C172.4,207.5,171.4,208.2,172.2,210.1z M113.9,164.6c0.6-2-0.6-3-3.1-3.4c-6.8-1.2-13.3-3.2-19.6-6c-1.4-0.6-2.3-0.7-2.4,1.2
				c-1.1,11.8-0.8,23.6,1.1,35.3c0.2,1.3,0.7,2.2,2,2.7c7,2.4,14,4.2,21.3,5.6c1.2,0.2,1.6-0.1,1.5-1.3
				C113.5,187.5,113,176.4,113.9,164.6z M113.2,154.1c1.3,0,1.5-0.1,1.7-1.8c1.4-11.2,3.4-22.4,6.7-33.3c0.5-1.6-0.1-2.1-1.5-2.5
				c-4.6-1.1-9-2.8-13-5.3c-1.2-0.8-1.9-0.6-2.7,0.6c-6.5,10-10.8,20.9-13.5,32.6c-0.2,1-0.3,2.1,0.9,2.7
				C98.5,150.5,105.8,152.6,113.2,154.1z M232.6,161.6c0.1-12.6-2.4-23.8-7.1-34.6c-0.7-1.5-1.1-1.8-2.1-0.3
				c-3.3,4.7-7.3,8.7-11.8,12.2c-1.7,1.3-1.8,2.4-1.2,4.3c4,12.4,6.1,25.1,6.6,38.1c0.1,1.7,0.3,2.2,2,1.1c3.9-2.6,7.6-5.3,11.2-8.3
				c1.2-1,1.9-2.2,2.1-3.8C232.6,167.1,232.4,163.9,232.6,161.6z M195.3,92c-0.7-0.1-0.9,0.4-1.1,0.8c-1.4,2.6-3,5.1-5.2,7.2
				c-0.9,0.9-0.5,1.5,0.1,2.3c6.9,8.9,12.5,18.5,16.8,28.9c0.7,1.7,1.2,1.6,2.5,0.5c4.2-3.6,7.7-7.6,10.7-12.2
				c1-1.5,0.9-2.7-0.1-4.1c-6-8.9-13.4-16.4-22.3-22.5C196.2,92.6,195.7,92.3,195.3,92z M92.1,202.5c1.7,7.3,3.9,13.8,6.5,20.3
				c0.6,1.6,1.6,2.9,3,3.9c6.1,4.5,12.6,8.1,19.7,10.8c0.6,0.2,1.3,0.8,1.8,0.4c0.7-0.6,0-1.3-0.2-2c-2.4-7-3.7-13.3-5.3-21
				c-1.3-6.3,1-5.7-7.6-7.6C103,205.6,98.2,204.4,92.1,202.5z M68.6,160.3c-0.2,7.9,0.9,15.3,2.9,22.6c0.4,1.6,1.2,2.7,2.7,3.5
				c1.9,0.9,3.6,2,5.5,2.9c2,1,2.3,0.8,2.1-1.5c0-0.4-0.1-0.8-0.2-1.2c-0.7-7-1.3-14-0.9-21c0.3-4.3,0.5-8.6,1.1-12.9
				c0.2-1.4-0.2-2.4-1.5-3.2c-2.8-1.7-5.3-3.8-7.7-6.1c-1.7-1.5-1.9-1.5-2.4,0.8C69.1,149.6,68.4,155,68.6,160.3z M99.3,105.5
				c-0.1-0.3-0.1-0.5-0.2-0.6c-0.8-1.2-1.7-2.3-2.4-3.6c-0.7-1.3-1.2-1.5-2.4-0.4c-9,8.5-15.7,18.5-20.3,29.9
				c-0.6,1.5-0.4,2.6,0.6,3.7c2.1,2.3,4.3,4.5,6.8,6.4c1.6,1.3,2.2,0.9,2.6-0.9c2.9-11.8,7.6-22.8,14.4-33
				C98.8,106.6,99.1,106,99.3,105.5z M152.3,79.5c1.8,9.6,3.4,18.7,5.1,27.8c0.2,1.3,1.1,1.1,2,0.8c5.7-1.5,11.1-3.9,16.2-7
				c1.6-1,1.4-1.7,0.2-2.9c-3.6-3.7-7.3-7.2-11.3-10.4C160.8,84.9,156.9,82.1,152.3,79.5z M145.1,82.6c-0.6,0.4-0.7,0.4-0.8,0.5
				c-4.8,8.3-8.5,17.1-11.8,26.2c-0.5,1.3,0.1,1.7,1.3,1.7c4.6,0.1,9.1,0,13.6-0.4c2.4-0.2,2.7-1.3,2.3-3.3
				c-0.5-2.4-0.9-4.9-1.3-7.3C147.3,94.3,146.2,88.6,145.1,82.6z M136.1,82.1c-6.8,3-21.3,15.3-25.3,21.1c-0.7,1.1-0.5,1.5,0.5,2
				c3.5,1.9,7.2,3.4,11.1,4.3c1.3,0.3,2.1-0.1,2.5-1.4c0.5-1.5,1.1-3,1.6-4.5C129.2,96.3,132.4,89.4,136.1,82.1z M215.4,210.8
				c6.2-7.6,10.7-16.2,13.7-26c-4,2.5-7.6,4.8-11.2,7c-0.7,0.4-0.9,1-1,1.8C216.6,199.3,216,205,215.4,210.8z M168.1,80.8
				c4,3.4,7.9,6.8,11.6,10.6c4.1,4.2,4.2,4.1,7.2-1.1c1-1.8,0.9-2.8-1.1-3.7C180.2,84,174.4,82,168.1,80.8z M86.6,211.7
				c-0.9-3.6-1.8-7.3-2.7-10.9c-0.2-0.8-0.5-1.5-1.3-1.9c-1.8-0.8-3.6-1.6-6-2.7C79.4,202.2,82.6,207.2,86.6,211.7z M116.3,86.1
				c-1.8,0.9-3.6,1.7-5.3,2.7c-2.7,1.6-5.3,3.2-7.9,5c-1.2,0.8-0.8,3.1,0.6,4.4c1.3,1.2,1.6-0.4,2.1-0.9
				C109.2,93.5,112.6,89.9,116.3,86.1z"/>
		</g>
		
			<rect x="124" y="76.1" transform="matrix(-0.7772 -0.6293 0.6293 -0.7772 325.9578 288.2761)" fill="#FFFFFF" width="180" height="20.7"/>
		
			<rect x="-2.9" y="76" transform="matrix(0.7772 -0.6293 0.6293 0.7772 -34.9315 74.0806)" fill="#FFFFFF" width="180" height="20.7"/>
	</g>
</g>
</svg>
